PathFileType	4	(X/Y/Z)	/Users/itak/Documents/Research/Walk-IL/dataset/trc/00439_00167.trc
DataRate	CameraRate	NumFrames	NumMarkers	Units	OrigDataRate	OrigDataStartFrame	OrigNumFrames
100.000000	100.000000	4	53	mm	100.000000	130	523
Frame#	Time	RPSI			LPSI			L3			STRN			T10			C7			CLAV			RBAK			LBAK			LSHO			LUPA			LAEL			LAOL			LWTS			LWPS			LFRA			LIFD			LHPS			LHTS			RSHO			RUPA			RAEL			RAOL			RWTS			RWPS			RFRA			RIFD			RHTS			RHPS			RBHD			LFHD			RFHD			LBHD			LHIP			RHIP			RASI			LASI			LKNE			LTHI			LANK			LTIP			LTOE			LMT1			LMT5			LHEE			RKNE			RTHI			RANK			RTIP			RTOE			RMT1			RMT5			RHEE			
		X1	Y1	Z1	X2	Y2	Z2	X3	Y3	Z3	X4	Y4	Z4	X5	Y5	Z5	X6	Y6	Z6	X7	Y7	Z7	X8	Y8	Z8	X9	Y9	Z9	X10	Y10	Z10	X11	Y11	Z11	X12	Y12	Z12	X13	Y13	Z13	X14	Y14	Z14	X15	Y15	Z15	X16	Y16	Z16	X17	Y17	Z17	X18	Y18	Z18	X19	Y19	Z19	X20	Y20	Z20	X21	Y21	Z21	X22	Y22	Z22	X23	Y23	Z23	X24	Y24	Z24	X25	Y25	Z25	X26	Y26	Z26	X27	Y27	Z27	X28	Y28	Z28	X29	Y29	Z29	X30	Y30	Z30	X31	Y31	Z31	X32	Y32	Z32	X33	Y33	Z33	X34	Y34	Z34	X35	Y35	Z35	X36	Y36	Z36	X37	Y37	Z37	X38	Y38	Z38	X39	Y39	Z39	X40	Y40	Z40	X41	Y41	Z41	X42	Y42	Z42	X43	Y43	Z43	X44	Y44	Z44	X45	Y45	Z45	X46	Y46	Z46	X47	Y47	Z47	X48	Y48	Z48	X49	Y49	Z49	X50	Y50	Z50	X51	Y51	Z51	X52	Y52	Z52	X53	Y53	Z53	

131	1.3	-1016.05908203125	979.4229125976562	-400.5414733886719	-940.8604736328125	971.7392578125	-521.2836303710938	-960.3743896484375	1068.555786132812	-443.7735595703125	-708.36328125	1234.659545898438	-314.5864868164062	-964.3521118164062	1191.079345703125	-456.7449645996094	-895.2318725585938	1451.711059570312	-402.59326171875	-730.3804931640625	1351.7001953125	-329.4081115722656	-1003.270263671875	1336.052612304688	-356.5595703125	-877.1486206054688	1410.43701171875	-507.2989807128906	-745.6566772460938	1423.939697265625	-523.1959838867188	-707.7274169921875	1309.7373046875	-619.638427734375	-670.3947143554688	1095.0419921875	-646.7218627929688	-773.6400756835938	1080.293212890625	-639.3817749023438	-629.9657592773438	888.67333984375	-578.2047729492188	-636.9122924804688	877.8710327148438	-651.4288940429688	-648.1206665039062	1007.546630859375	-648.7328491210938	-624.5296630859375	719.9251098632812	-590.3399047851562	-631.9647216796875	797.0543823242188	-651.9957275390625	-611.6743774414062	799.4659423828125	-583.6673583984375	-912.7619018554688	1413.2236328125	-231.4889678955078	-968.1681518554688	1353.931274414062	-175.3676452636719	-1012.045776367188	1072.038208007812	-122.1025009155273	-1043.071899414062	1052.8759765625	-179.8796234130859	-890.326171875	878.8305053710938	-112.0907135009766	-972.9447631835938	858.2379760742188	-88.78648376464844	-1010.28955078125	1013.856811523438	-110.1764068603516	-881.1478881835938	720.1455078125	-100.3115921020508	-875.2012329101562	780.3853149414062	-91.2071533203125	-949.91259765625	773.1469116210938	-80.10214996337891	-862.7171630859375	1639.8134765625	-287.1093139648438	-668.17919921875	1657.509765625	-356.1702270507812	-732.9909057617188	1658.98388671875	-242.4578857421875	-788.1087646484375	1642.927368164062	-449.2371520996094	-784.2094116210938	840.8057861328125	-552.6510620117188	-998.1262817382812	871.7633056640625	-216.2701873779297	-873.8177490234375	899.1305541992188	-223.5563659667969	-731.34521484375	874.0350341796875	-435.5812683105469	-853.1500854492188	422.4815979003906	-511.9306640625	-801.4361572265625	570.0673828125	-521.978515625	-1026.197021484375	44.94109344482422	-583.1030883789062	-898.080322265625	273.1286010742188	-535.6227416992188	-889.6702270507812	40.72914505004883	-391.3306274414062	-964.1981811523438	54.15065765380859	-415.3103637695312	-897.6666259765625	40.39990615844727	-509.2533264160156	-1098.363525390625	60.12334823608398	-578.3038330078125	-971.5038452148438	474.1661682128906	-218.4083251953125	-964.4094848632812	733.1504516601562	-185.3850555419922	-1134.373413085938	77.77542114257812	-319.9992980957031	-1031.687255859375	341.5397644042969	-236.4877624511719	-934.1618041992188	46.27500915527344	-259.3931274414062	-967.0647583007812	58.79703140258789	-316.3328552246094	-1036.804931640625	47.73726272583008	-236.7518615722656	-1164.022216796875	96.33146667480469	-394.1387939453125	
132	1.31	-1014.494201660156	979.0599365234375	-399.6091003417969	-939.1453857421875	971.944580078125	-520.2327270507812	-958.2633056640625	1068.820678710938	-442.981201171875	-705.9769897460938	1234.046875	-312.5468139648438	-961.5032348632812	1191.396240234375	-455.9521179199219	-891.5584716796875	1451.691284179688	-401.3141784667969	-727.5031127929688	1351.178955078125	-327.4041748046875	-1000.313293457031	1336.439697265625	-355.8041687011719	-873.0887451171875	1410.406494140625	-505.8784790039062	-741.4739990234375	1423.49560546875	-521.1858520507812	-703.4412231445312	1309.231689453125	-617.5490112304688	-666.9344482421875	1094.414916992188	-644.7134399414062	-770.3311767578125	1080.185302734375	-637.8885498046875	-627.9642333984375	887.551513671875	-576.746826171875	-634.6536865234375	877.0698852539062	-650.02978515625	-645.1627807617188	1006.777038574219	-646.9216918945312	-623.4637451171875	718.823974609375	-589.5411987304688	-630.1967163085938	796.2178344726562	-650.9076538085938	-610.1256713867188	798.201904296875	-582.41357421875	-910.1005859375	1413.223999023438	-230.2826232910156	-965.9270629882812	1354.04736328125	-174.4577789306641	-1010.343322753906	1072.265502929688	-121.1766586303711	-1041.105224609375	1052.835083007812	-179.0342102050781	-887.3882446289062	879.9248657226562	-110.2835006713867	-969.951904296875	858.8368530273438	-87.12193298339844	-1008.309997558594	1014.139770507812	-109.0979690551758	-877.1185913085938	721.3665161132812	-97.89743041992188	-871.62158203125	781.6766357421875	-89.02544403076172	-946.3418579101562	773.9406127929688	-78.08366394042969	-858.7548217773438	1639.54248046875	-285.3528442382812	-664.1295166015625	1656.7041015625	-354.1022644042969	-729.0679321289062	1658.310791015625	-240.4725799560547	-783.9310913085938	1642.536743164062	-447.3456420898438	-782.3338623046875	840.638671875	-551.20166015625	-995.9247436523438	871.7930908203125	-214.4784088134766	-872.1036376953125	899.6744384765625	-222.5848388671875	-729.5148315429688	873.8405151367188	-434.145751953125	-851.8316040039062	422.4264526367188	-511.0550231933594	-799.8452758789062	569.9586791992188	-520.7339477539062	-1025.84326171875	45.49103546142578	-583.2813720703125	-897.1688232421875	273.2464904785156	-535.0202026367188	-889.7239990234375	40.72938537597656	-391.335693359375	-964.2264404296875	54.05739974975586	-415.3414306640625	-897.6339111328125	40.31584930419922	-509.1939392089844	-1097.921020507812	60.9090576171875	-578.688720703125	-962.4257202148438	475.0726623535156	-211.9308929443359	-959.5372314453125	733.8075561523438	-182.3961181640625	-1132.268310546875	83.11723327636719	-319.3114929199219	-1024.683349609375	343.501708984375	-231.7701873779297	-933.7250366210938	45.92451858520508	-259.1065368652344	-965.7415771484375	59.43336868286133	-315.8098754882812	-1035.91259765625	48.75588989257812	-236.7613067626953	-1160.966552734375	103.6985931396484	-393.2408752441406	
133	1.32	-1012.903686523438	978.6056518554688	-398.5976867675781	-937.4663696289062	972.1452026367188	-519.1367797851562	-956.1355590820312	1069.045532226562	-442.1376037597656	-703.58203125	1233.395263671875	-310.42626953125	-958.60107421875	1191.680419921875	-455.115478515625	-887.8326416015625	1451.633911132812	-399.9838256835938	-724.6148071289062	1350.619384765625	-325.3158874511719	-997.3143920898438	1336.798706054688	-355.0159606933594	-868.9619750976562	1410.336791992188	-504.4065246582031	-737.22119140625	1423.0009765625	-519.0886840820312	-699.0701293945312	1308.676025390625	-615.3641967773438	-663.4541625976562	1093.727294921875	-642.6038818359375	-766.9660034179688	1080.022094726562	-636.3212280273438	-625.9823608398438	886.398681640625	-575.1170043945312	-632.390869140625	876.201171875	-648.444580078125	-642.20361328125	1005.946899414062	-644.9794921875	-622.4224243164062	717.6914672851562	-588.47998046875	-628.4216918945312	795.3223876953125	-649.613037109375	-608.6405029296875	796.9098510742188	-580.9471435546875	-907.4365234375	1413.205200195312	-229.0235137939453	-963.7153930664062	1354.149658203125	-173.5290069580078	-1008.75146484375	1072.482299804688	-120.2791366577148	-1039.209716796875	1052.793701171875	-178.2375640869141	-884.5868530273438	880.9976806640625	-108.4775314331055	-967.0955200195312	859.4246826171875	-85.49989318847656	-1006.448303222656	1014.407287597656	-108.0518569946289	-873.2413940429688	722.577880859375	-95.49291229248047	-868.1886596679688	782.9558715820312	-86.84157562255859	-942.9217529296875	774.7276000976562	-76.10059356689453	-854.808837890625	1639.224853515625	-283.5506591796875	-660.072998046875	1655.873046875	-351.9506530761719	-725.158447265625	1657.611328125	-238.42724609375	-779.7571411132812	1642.092041015625	-445.3867797851562	-780.4217529296875	840.4642944335938	-549.7116088867188	-993.600830078125	871.8413696289062	-212.5828399658203	-870.26513671875	900.2494506835938	-221.5543365478516	-727.6395263671875	873.6384887695312	-432.6724243164062	-850.5777587890625	422.3816833496094	-510.1973266601562	-798.2791748046875	569.8577270507812	-519.4625854492188	-1025.534423828125	46.03610610961914	-583.415283203125	-896.3462524414062	273.3648071289062	-534.4281616210938	-889.7583618164062	40.71321105957031	-391.3267517089844	-964.2282104492188	53.98387145996094	-415.3562927246094	-897.6212158203125	40.23032760620117	-509.14208984375	-1097.529174804688	61.69728088378906	-578.98828125	-952.928466796875	476.1646118164062	-205.1845550537109	-954.4813232421875	734.5914306640625	-179.2525329589844	-1129.686157226562	89.04940032958984	-318.4118041992188	-1017.104919433594	345.6324462890625	-226.7669830322266	-933.03076171875	45.58553314208984	-258.5514526367188	-964.0695190429688	60.32253265380859	-315.0770263671875	-1034.72802734375	50.21780395507812	-236.5751495361328	-1157.381713867188	111.5875244140625	-392.1158752441406	
134	1.33	-1011.282836914062	978.0449829101562	-397.4781188964844	-935.7932739257812	972.2693481445312	-517.9656372070312	-953.9881591796875	1069.221435546875	-441.2214965820312	-701.1704711914062	1232.700439453125	-308.2193298339844	-955.6409301757812	1191.918823242188	-454.2117309570312	-884.0516357421875	1451.534057617188	-398.586181640625	-721.7073974609375	1350.017333984375	-323.1377868652344	-994.2647705078125	1337.12255859375	-354.1824951171875	-864.7716064453125	1410.22412109375	-502.8752746582031	-732.901123046875	1422.448120117188	-516.8994140625	-694.6194458007812	1308.0615234375	-613.078369140625	-659.94873046875	1092.969360351562	-640.3881225585938	-763.5344848632812	1079.788940429688	-634.6752319335938	-624.010498046875	885.21044921875	-573.314697265625	-630.1162109375	875.2588500976562	-646.674072265625	-639.2328491210938	1005.052917480469	-642.9010009765625	-621.3970336914062	716.5225830078125	-587.156005859375	-626.6219482421875	794.3665161132812	-648.1044921875	-607.200439453125	795.589111328125	-579.2703857421875	-904.7587890625	1413.161499023438	-227.6999359130859	-961.5183715820312	1354.235107421875	-172.5668487548828	-1007.258544921875	1072.68701171875	-119.4039840698242	-1037.383056640625	1052.752685546875	-177.4757995605469	-881.938232421875	882.0372924804688	-106.6657867431641	-964.3876953125	859.9892578125	-83.91728973388672	-1004.697937011719	1014.654418945312	-107.0326385498047	-869.5341796875	723.7618408203125	-93.10268402099609	-864.9286499023438	784.2064819335938	-84.65203094482422	-939.6697998046875	775.4954223632812	-74.15607452392578	-850.8712158203125	1638.85986328125	-281.6953125	-656.0003051757812	1655.017822265625	-349.7154846191406	-721.2603759765625	1656.888549804688	-236.326171875	-775.5851440429688	1641.583740234375	-443.3621520996094	-778.4774169921875	840.2799682617188	-548.1856079101562	-991.1461791992188	871.8964233398438	-210.5830078125	-868.3001708984375	900.8360595703125	-220.4452972412109	-725.718505859375	873.4185791015625	-431.1618041992188	-849.3956909179688	422.3439636230469	-509.355712890625	-796.73681640625	569.757080078125	-518.17138671875	-1025.264526367188	46.57125473022461	-583.5031127929688	-895.5916137695312	273.4867248535156	-533.8472900390625	-889.7691650390625	40.6788330078125	-391.3022766113281	-964.2075805664062	53.92788314819336	-415.3540344238281	-897.619140625	40.15643692016602	-509.1000366210938	-1097.19287109375	62.49075698852539	-579.1954956054688	-943.076416015625	477.4232177734375	-198.2396240234375	-949.2866821289062	735.491455078125	-175.9651641845703	-1126.541870117188	95.49447631835938	-317.2594604492188	-1008.977905273438	347.8849182128906	-221.5115661621094	-931.933837890625	45.30987930297852	-257.5846862792969	-961.939453125	61.52985763549805	-314.0366821289062	-1033.136596679688	52.21728515625	-236.0750427246094	-1153.216552734375	119.8221206665039	-390.73876953125	
